<svg width="353" height="353" viewBox="0 0 353 353" fill="none" xmlns="http://www.w3.org/2000/svg">
<path d="M124.157 169.151C117.345 169.151 112.158 167.415 108.596 163.942C105.079 160.469 103.321 155.394 103.321 148.715V127.144C103.321 125.319 103.855 123.872 104.923 122.803C106.036 121.69 107.506 121.133 109.331 121.133C111.156 121.133 112.603 121.69 113.672 122.803C114.785 123.872 115.342 125.319 115.342 127.144V149.183C115.342 152.566 116.098 155.171 117.612 156.996C119.126 158.822 121.308 159.735 124.157 159.735C127.006 159.735 129.188 158.822 130.702 156.996C132.216 155.171 132.972 152.566 132.972 149.183V127.144C132.972 125.319 133.507 123.872 134.575 122.803C135.688 121.69 137.158 121.133 138.983 121.133C140.808 121.133 142.278 121.69 143.391 122.803C144.504 123.872 145.06 125.319 145.06 127.144V148.715C145.06 155.349 143.257 160.425 139.651 163.942C136.089 167.415 130.924 169.151 124.157 169.151Z" fill="white"/>
<path d="M159.427 168.951C157.602 168.951 156.132 168.394 155.019 167.281C153.906 166.168 153.35 164.699 153.35 162.873V127.144C153.35 125.319 153.839 123.916 154.819 122.937C155.798 121.957 157.201 121.467 159.026 121.467H181.466C183.469 121.467 184.939 121.868 185.874 122.67C186.809 123.426 187.276 124.651 187.276 126.343C187.276 127.99 186.786 129.192 185.807 129.949C184.872 130.706 183.425 131.084 181.466 131.084H165.438V139.766H180.13C182.089 139.766 183.536 140.167 184.471 140.968C185.451 141.77 185.94 142.994 185.94 144.641C185.94 146.289 185.451 147.491 184.471 148.248C183.536 149.005 182.089 149.383 180.13 149.383H165.438V162.873C165.438 164.743 164.881 166.235 163.768 167.348C162.7 168.416 161.253 168.951 159.427 168.951Z" fill="white"/>
<path d="M198.036 168.951C196.166 168.951 194.675 168.416 193.562 167.348C192.493 166.235 191.959 164.743 191.959 162.873V127.144C191.959 125.319 192.449 123.916 193.428 122.937C194.408 121.957 195.81 121.467 197.636 121.467H214.732C219.941 121.467 223.993 122.803 226.887 125.474C229.781 128.101 231.228 131.774 231.228 136.494C231.228 141.169 229.759 144.842 226.82 147.513C223.926 150.184 219.897 151.52 214.732 151.52H204.247V162.873C204.247 164.743 203.691 166.235 202.578 167.348C201.465 168.416 199.951 168.951 198.036 168.951ZM213.063 142.304C215.333 142.304 217.003 141.836 218.071 140.901C219.184 139.966 219.741 138.52 219.741 136.561C219.741 132.687 217.515 130.75 213.063 130.75H204.247V142.304H213.063Z" fill="white"/>
<path d="M243.233 168.951C241.363 168.951 239.872 168.416 238.759 167.348C237.69 166.235 237.156 164.743 237.156 162.873V127.144C237.156 125.319 237.69 123.872 238.759 122.803C239.872 121.69 241.363 121.133 243.233 121.133C245.147 121.133 246.661 121.69 247.774 122.803C248.887 123.872 249.444 125.319 249.444 127.144V162.873C249.444 164.743 248.887 166.235 247.774 167.348C246.661 168.416 245.147 168.951 243.233 168.951Z" fill="white"/>
<path d="M36.7707 161.792V117.667C40.8302 117.667 44.125 114.372 44.125 110.313C44.125 106.253 40.8302 102.958 36.7707 102.958C16.4883 102.958 0 119.461 0 139.729V154.438C0 166.602 9.89849 176.5 22.0625 176.5H36.7707C40.8302 176.5 44.125 173.206 44.125 169.146C44.125 165.087 40.8302 161.792 36.7707 161.792Z" fill="white"/>
<path d="M316.229 102.958C312.17 102.958 308.875 106.253 308.875 110.313C308.875 114.372 312.17 117.667 316.229 117.667V161.792C312.17 161.792 308.875 165.087 308.875 169.146C308.875 173.206 312.17 176.5 316.229 176.5H330.937C343.102 176.5 353 166.602 353 154.438V139.729C353 119.461 336.512 102.958 316.229 102.958Z" fill="white"/>
<path d="M125.02 308.875C120.961 308.875 117.666 312.17 117.666 316.229H73.5408C73.5408 312.17 70.246 308.875 66.1865 308.875C62.127 308.875 58.832 312.17 58.832 316.229V330.937C58.832 343.102 68.7305 353 80.8945 353H110.312C122.476 353 132.375 343.102 132.375 330.937V316.229C132.375 312.17 129.08 308.875 125.02 308.875Z" fill="white"/>
<path d="M286.812 308.875C282.753 308.875 279.458 312.17 279.458 316.229H235.333C235.333 312.17 232.039 308.875 227.979 308.875C223.92 308.875 220.625 312.17 220.625 316.229V330.937C220.625 343.102 230.523 353 242.687 353H272.104C284.268 353 294.167 343.102 294.167 330.937V316.229C294.167 312.17 290.872 308.875 286.812 308.875Z" fill="white"/>
<path d="M286.812 0H66.1873C45.9043 0 29.4167 16.5028 29.4167 36.7707V286.813C29.4167 307.08 45.9049 323.583 66.1873 323.583H286.812C307.095 323.583 323.583 307.08 323.583 286.813V36.7707C323.583 16.5028 307.095 0 286.812 0ZM95.6043 29.4168H257.396C269.56 29.4168 279.458 39.3155 279.458 51.4793C279.458 63.6434 269.56 73.5418 257.396 73.5418H95.6043C83.4403 73.5418 73.5416 63.6434 73.5416 51.4793C73.5416 39.3155 83.4403 29.4168 95.6043 29.4168ZM95.6043 279.458C83.4403 279.458 73.5416 269.56 73.5416 257.396C73.5416 245.232 83.4403 235.333 95.6043 235.333C107.768 235.333 117.667 245.232 117.667 257.396C117.667 269.56 107.768 279.458 95.6043 279.458ZM257.396 279.458C245.231 279.458 235.333 269.56 235.333 257.396C235.333 245.232 245.231 235.333 257.396 235.333C269.56 235.333 279.458 245.232 279.458 257.396C279.458 269.56 269.56 279.458 257.396 279.458ZM294.166 183.854C294.166 196.018 284.268 205.917 272.104 205.917H80.8955C68.7315 205.917 58.833 196.018 58.833 183.854V110.313C58.833 98.1485 68.7315 88.25 80.8955 88.25H272.104C284.268 88.25 294.166 98.1485 294.166 110.313V183.854Z" fill="white"/>
</svg>
